<?xml version="1.0" standalone="no"?>
<!DOCTYPE svg PUBLIC "-//W3C//DTD SVG 20010904//EN"
 "http://www.w3.org/TR/2001/REC-SVG-20010904/DTD/svg10.dtd">
<svg version="1.0" xmlns="http://www.w3.org/2000/svg"
 width="1332.000000pt" height="1332.000000pt" viewBox="0 0 1332.000000 1332.000000"
 preserveAspectRatio="xMidYMid meet">
<metadata>
Created by potrace 1.14, written by Peter Selinger 2001-2017
</metadata>
<g transform="translate(0.000000,1332.000000) scale(0.100000,-0.100000)"
fill="#000000" stroke="none">
<path d="M1265 13313 c-120 -10 -216 -27 -307 -54 -497 -147 -864 -571 -940
-1087 -10 -70 -13 -1145 -13 -5522 0 -5898 -4 -5510 56 -5712 128 -433 454
-759 899 -900 l105 -33 5605 0 5605 0 105 33 c445 141 761 457 902 902 l33
105 0 5605 0 5605 -33 105 c-159 504 -555 851 -1074 942 -59 10 -1132 13
-5488 14 -2978 0 -5433 -1 -5455 -3z m9399 -2735 c-19 -234 -85 -452 -186
-613 -215 -340 -524 -550 -918 -625 -103 -20 -153 -20 -3498 -20 l-3392 0 6
73 c37 448 243 801 610 1043 175 116 397 189 629 207 22 2 1551 4 3398 5
l3357 2 -6 -72z m-2664 -2656 c0 -57 -27 -214 -53 -307 -99 -350 -354 -657
-688 -825 -79 -40 -242 -95 -349 -116 -79 -17 -238 -18 -2162 -21 l-2078 -4 0
666 0 665 2665 0 2665 0 0 -58z m4340 -672 l0 -330 -170 0 -170 0 -3 -2432
c-2 -2308 -4 -2437 -21 -2508 -37 -155 -93 -294 -166 -414 -195 -322 -507
-542 -880 -623 -119 -25 -401 -25 -520 0 -373 81 -685 301 -880 623 -73 120
-129 259 -166 414 -17 71 -19 200 -21 2508 l-3 2432 -170 0 -170 0 0 330 0
330 1670 0 1670 0 0 -330z m-8340 -3265 l0 -1335 -72 6 c-449 37 -802 243
-1044 610 -91 138 -148 284 -192 489 -12 57 -15 207 -19 818 l-4 747 665 0
666 0 0 -1335z"/>
<path d="M10000 6420 l0 -500 670 0 670 0 0 500 0 500 -670 0 -670 0 0 -500z"/>
<path d="M10932 4909 c-151 -26 -252 -145 -261 -306 -10 -210 142 -362 352
-352 215 11 348 190 303 408 -18 86 -33 115 -87 169 -70 69 -191 101 -307 81z"/>
<path d="M10204 3560 c-143 -57 -223 -210 -194 -372 22 -122 90 -208 196 -248
83 -31 216 -25 289 12 67 34 112 81 144 148 22 47 26 68 26 150 0 78 -4 104
-23 145 -29 63 -83 119 -147 153 -69 36 -215 42 -291 12z"/>
</g>
</svg>
